<svg width="15" height="15" viewBox="0 0 15 15" fill="none" xmlns="http://www.w3.org/2000/svg">
<path opacity="0.2" d="M14.9593 7.50014C14.9593 11.6205 11.6192 14.9607 7.49894 14.9607C3.3786 14.9607 0.0384521 11.6205 0.0384521 7.50014C0.0384521 3.37985 3.3786 0.0397034 7.49894 0.0397034C11.6192 0.0397034 14.9593 3.37985 14.9593 7.50014Z" fill="#0075FF"/>
<g opacity="0.8">
<path d="M7.47504 4.03847L7.42896 4.19509V8.73998L7.47504 8.78598L9.58472 7.53895L7.47504 4.03847Z" fill="#F7F7F7"/>
<path d="M7.47504 4.03847L5.36536 7.53895L7.47504 8.78599V6.58004V4.03847Z" fill="#F7F7F7"/>
<path d="M7.47506 9.47237L7.4491 9.50403V11.123L7.47506 11.1989L9.58602 8.22597L7.47506 9.47237Z" fill="#F7F7F7"/>
<path d="M7.47504 11.1989V9.47237L5.36536 8.22597L7.47504 11.1989Z" fill="#F7F7F7"/>
<path d="M7.47498 8.78598L9.58463 7.53897L7.47498 6.58006V8.78598Z" fill="#F7F7F7"/>
<path d="M5.36536 7.53895L7.47501 8.78598V6.58005L5.36536 7.53895Z" fill="#F7F7F7"/>
</g>
</svg>
