<svg width="145" height="27" viewBox="0 0 145 27" fill="none" xmlns="http://www.w3.org/2000/svg">
<path d="M126.447 14.7245C125.663 14.169 124.787 13.7662 123.959 13.2791C123.408 12.9932 122.883 12.6557 122.388 12.2708C121.599 11.5784 121.757 10.2147 122.591 9.61969C123.773 8.77459 125.739 9.25375 125.942 10.9729C125.943 10.9908 125.951 11.0076 125.963 11.0198C125.976 11.032 125.992 11.0388 126.009 11.0387H127.794C127.805 11.0388 127.815 11.0366 127.824 11.0322C127.833 11.0279 127.841 11.0216 127.848 11.0136C127.855 11.0057 127.86 10.9963 127.863 10.9861C127.866 10.9759 127.867 10.9651 127.866 10.9545C127.77 9.76712 127.347 8.77986 126.56 8.14802C125.833 7.55141 124.941 7.22581 124.023 7.22131C119.292 7.22131 118.861 12.5525 121.406 14.2348C121.703 14.4296 124.198 15.7644 125.081 16.3409C125.964 16.9175 126.241 17.9864 125.858 18.8315C125.509 19.6055 124.604 20.1241 123.699 20.0741C122.71 20.0188 121.943 19.4449 121.673 18.5524C121.63 18.3547 121.606 18.1526 121.604 17.9495C121.603 17.9302 121.595 17.9121 121.581 17.8989C121.568 17.8857 121.551 17.8784 121.532 17.8784H119.588C119.569 17.8791 119.551 17.8877 119.538 17.9025C119.524 17.9172 119.517 17.9369 119.517 17.9574C119.517 19.4528 119.868 20.2794 120.813 21.035C121.641 21.7038 122.655 22.0596 123.694 22.046C126.338 22.046 127.718 20.4506 127.99 18.7972C128.262 17.1439 127.814 15.688 126.447 14.7245Z" fill="#F7F7F7"/>
<path d="M42.2392 7.4766H40.4461C40.4311 7.47606 40.4162 7.48097 40.4041 7.49053C40.392 7.50009 40.3833 7.51374 40.3794 7.52926L38.7817 13.1132C38.7777 13.1288 38.769 13.1425 38.7569 13.1523C38.7448 13.1621 38.7301 13.1674 38.7149 13.1674C38.6997 13.1674 38.685 13.1621 38.6729 13.1523C38.6609 13.1425 38.6521 13.1288 38.6481 13.1132L37.0529 7.52926C37.0482 7.51376 37.0389 7.50029 37.0264 7.49082C37.014 7.48134 36.999 7.47636 36.9837 7.4766H34.0332C34.0145 7.47659 33.9967 7.48427 33.9833 7.49802C33.9699 7.51178 33.9621 7.53053 33.9614 7.55032V21.8168C33.9614 21.8371 33.969 21.8565 33.9824 21.8708C33.9959 21.8851 34.0141 21.8932 34.0332 21.8932H35.9771C35.9864 21.8932 35.9956 21.8912 36.0042 21.8873C36.0127 21.8835 36.0205 21.8778 36.0269 21.8707C36.0334 21.8636 36.0385 21.8551 36.0418 21.8459C36.0451 21.8366 36.0467 21.8267 36.0463 21.8168V10.9781C36.0476 10.9608 36.0544 10.9445 36.0656 10.9319C36.0767 10.9193 36.0916 10.9111 36.1077 10.9087C36.1238 10.9062 36.1402 10.9097 36.1542 10.9184C36.1682 10.9272 36.179 10.9408 36.1848 10.957L37.7924 16.5778L37.9037 16.9701C37.9084 16.9856 37.9177 16.999 37.9302 17.0085C37.9427 17.018 37.9576 17.023 37.9729 17.0227H39.4569C39.4722 17.023 39.4872 17.018 39.4996 17.0085C39.5121 16.999 39.5214 16.9856 39.5261 16.9701L39.6374 16.5778L41.245 10.957C41.2508 10.9408 41.2616 10.9272 41.2756 10.9184C41.2896 10.9097 41.306 10.9062 41.3221 10.9087C41.3382 10.9111 41.3531 10.9193 41.3642 10.9319C41.3754 10.9445 41.3822 10.9608 41.3835 10.9781V21.8168C41.3831 21.8267 41.3847 21.8366 41.388 21.8459C41.3914 21.8551 41.3964 21.8636 41.4029 21.8707C41.4093 21.8778 41.4171 21.8835 41.4256 21.8873C41.4342 21.8912 41.4434 21.8932 41.4527 21.8932H43.3967C43.4157 21.8932 43.4339 21.8851 43.4474 21.8708C43.4608 21.8565 43.4684 21.8371 43.4684 21.8168V7.55032C43.4677 7.53053 43.4599 7.51178 43.4465 7.49802C43.4331 7.48427 43.4153 7.47659 43.3967 7.4766H42.2392Z" fill="#F7F7F7"/>
<path d="M96.7458 7.47669C96.7309 7.477 96.7165 7.48223 96.7045 7.49167C96.6925 7.50111 96.6836 7.51427 96.679 7.52934L95.0838 13.1133C95.079 13.1284 95.0699 13.1416 95.0577 13.151C95.0455 13.1603 95.0308 13.1654 95.0158 13.1654C95.0008 13.1654 94.9861 13.1603 94.9739 13.151C94.9617 13.1416 94.9526 13.1284 94.9478 13.1133L93.3526 7.52934C93.3483 7.51406 93.3395 7.50066 93.3274 7.49116C93.3154 7.48167 93.3008 7.47659 93.2858 7.47669H90.3353C90.3167 7.47667 90.2988 7.48435 90.2854 7.49811C90.272 7.51186 90.2642 7.53061 90.2635 7.5504V21.8169C90.2635 21.8372 90.2711 21.8566 90.2846 21.8709C90.298 21.8852 90.3163 21.8933 90.3353 21.8933H92.2792C92.2978 21.8926 92.3154 21.8842 92.3283 21.87C92.3412 21.8558 92.3485 21.8367 92.3484 21.8169V10.9782C92.3498 10.9609 92.3565 10.9446 92.3677 10.932C92.3788 10.9194 92.3937 10.9112 92.4098 10.9087C92.4259 10.9063 92.4423 10.9097 92.4563 10.9185C92.4704 10.9273 92.4811 10.9409 92.4869 10.9571L94.0945 16.5779L94.2058 16.9701C94.2104 16.9852 94.2193 16.9984 94.2313 17.0078C94.2433 17.0173 94.2577 17.0225 94.2726 17.0228H95.7565C95.7716 17.0234 95.7864 17.0184 95.7985 17.0089C95.8107 16.9993 95.8194 16.9857 95.8233 16.9701L95.9371 16.5779L97.5422 10.9571C97.548 10.9409 97.5588 10.9273 97.5728 10.9185C97.5868 10.9097 97.6032 10.9063 97.6193 10.9087C97.6354 10.9112 97.6503 10.9194 97.6614 10.932C97.6726 10.9446 97.6793 10.9609 97.6807 10.9782V21.8169C97.6807 21.8372 97.6882 21.8566 97.7017 21.8709C97.7151 21.8852 97.7334 21.8933 97.7524 21.8933H99.6963C99.7149 21.8926 99.7325 21.8842 99.7454 21.87C99.7583 21.8558 99.7656 21.8367 99.7656 21.8169V7.5504C99.7649 7.53106 99.7574 7.51269 99.7446 7.49901C99.7317 7.48532 99.7145 7.47734 99.6963 7.47669H96.7458Z" fill="#F7F7F7"/>
<path d="M71.7296 7.47668H62.5788C62.5602 7.47667 62.5423 7.48435 62.5289 7.4981C62.5156 7.51186 62.5077 7.53061 62.5071 7.5504V9.33536C62.5077 9.35515 62.5156 9.3739 62.5289 9.38766C62.5423 9.40141 62.5602 9.40909 62.5788 9.40907H66.1229V21.8169C66.1229 21.8269 66.1247 21.8369 66.1284 21.8461C66.132 21.8554 66.1372 21.8638 66.1439 21.8709C66.1506 21.878 66.1585 21.8836 66.1672 21.8875C66.1759 21.8913 66.1852 21.8933 66.1946 21.8933H68.1385C68.1571 21.8926 68.1747 21.8842 68.1877 21.87C68.2006 21.8558 68.2078 21.8367 68.2078 21.8169V9.40907H71.7296C71.7482 9.40909 71.7661 9.40141 71.7795 9.38766C71.7929 9.3739 71.8007 9.35515 71.8013 9.33536V7.5504C71.8007 7.53061 71.7929 7.51186 71.7795 7.4981C71.7661 7.48435 71.7482 7.47667 71.7296 7.47668Z" fill="#F7F7F7"/>
<path d="M83.178 21.8933H84.9438C84.9547 21.8934 84.9653 21.8907 84.975 21.8856C84.9847 21.8805 84.9932 21.873 84.9997 21.8638C85.0061 21.8546 85.0105 21.8439 85.0124 21.8325C85.0143 21.8212 85.0137 21.8096 85.0106 21.7985L81.375 7.48461C81.3707 7.46862 81.3616 7.45457 81.3491 7.44459C81.3366 7.43461 81.3214 7.42925 81.3058 7.42932H78.7683C78.7527 7.42925 78.7374 7.43461 78.7249 7.44459C78.7124 7.45457 78.7033 7.46862 78.699 7.48461L75.0511 21.7985C75.0484 21.8097 75.0483 21.8214 75.0505 21.8328C75.0528 21.8441 75.0574 21.8547 75.0641 21.8638C75.0707 21.8729 75.0793 21.8803 75.089 21.8854C75.0988 21.8906 75.1095 21.8932 75.1203 21.8933H76.8862C76.9017 21.8926 76.9166 21.8866 76.9286 21.8762C76.9407 21.8657 76.9492 21.8514 76.953 21.8354L78.014 17.6757C78.0178 17.66 78.0264 17.646 78.0385 17.636C78.0506 17.626 78.0654 17.6205 78.0807 17.6204H81.9834C81.9986 17.6209 82.0133 17.6266 82.0253 17.6365C82.0373 17.6464 82.046 17.6602 82.0502 17.6757L83.1063 21.8327C83.1092 21.8504 83.1182 21.8663 83.1314 21.8774C83.1446 21.8886 83.1612 21.8942 83.178 21.8933ZM78.5432 15.5933L79.9628 10.0199C79.9676 10.0047 79.9767 9.99151 79.9889 9.98215C80.0012 9.9728 80.0158 9.96777 80.0308 9.96777C80.0459 9.96777 80.0605 9.9728 80.0727 9.98215C80.0849 9.99151 80.0941 10.0047 80.0989 10.0199L81.5185 15.5933C81.5216 15.6043 81.5222 15.616 81.5203 15.6273C81.5184 15.6386 81.514 15.6494 81.5075 15.6586C81.501 15.6678 81.4926 15.6753 81.4829 15.6804C81.4732 15.6855 81.4625 15.6881 81.4517 15.6881H78.6125C78.6016 15.688 78.5909 15.6853 78.5812 15.6802C78.5714 15.6751 78.5629 15.6677 78.5562 15.6586C78.5495 15.6494 78.5449 15.6388 78.5427 15.6275C78.5404 15.6162 78.5406 15.6045 78.5432 15.5933Z" fill="#F7F7F7"/>
<path d="M113.279 21.8932H115.043C115.053 21.8932 115.064 21.8905 115.074 21.8854C115.084 21.8803 115.092 21.8729 115.099 21.8637C115.106 21.8546 115.11 21.844 115.112 21.8327C115.115 21.8214 115.114 21.8097 115.112 21.7984L111.464 7.48452C111.46 7.4683 111.451 7.45399 111.438 7.44394C111.426 7.43389 111.41 7.42871 111.395 7.42924H108.867C108.851 7.42916 108.836 7.43452 108.824 7.4445C108.811 7.45448 108.802 7.46853 108.798 7.48452L105.152 21.7984C105.15 21.8094 105.149 21.8209 105.152 21.832C105.154 21.8432 105.158 21.8537 105.164 21.8627C105.171 21.8718 105.179 21.8793 105.189 21.8845C105.198 21.8898 105.208 21.8928 105.219 21.8932H106.985C107.001 21.893 107.016 21.8872 107.028 21.8766C107.04 21.8661 107.048 21.8516 107.052 21.8353L108.113 17.6756C108.117 17.6597 108.126 17.6456 108.139 17.6356C108.151 17.6256 108.166 17.6203 108.182 17.6204H112.082C112.097 17.6204 112.112 17.6259 112.124 17.6359C112.136 17.6459 112.145 17.6599 112.149 17.6756L113.21 21.8353C113.214 21.8518 113.223 21.8664 113.235 21.8769C113.248 21.8874 113.263 21.8931 113.279 21.8932ZM108.644 15.5932L110.064 10.0198C110.069 10.0046 110.078 9.99142 110.09 9.98207C110.102 9.97272 110.117 9.96769 110.132 9.96769C110.147 9.96769 110.162 9.97272 110.174 9.98207C110.186 9.99142 110.195 10.0046 110.2 10.0198L111.62 15.5932C111.622 15.6044 111.622 15.6161 111.62 15.6274C111.618 15.6387 111.613 15.6494 111.607 15.6585C111.6 15.6676 111.591 15.675 111.582 15.6801C111.572 15.6852 111.561 15.6879 111.55 15.688H108.711C108.7 15.688 108.69 15.6854 108.68 15.6803C108.67 15.6752 108.662 15.6677 108.655 15.6585C108.649 15.6493 108.645 15.6386 108.643 15.6272C108.641 15.6159 108.641 15.6042 108.644 15.5932Z" fill="#F7F7F7"/>
<path d="M51.3158 19.7845V15.3563C51.3154 15.3465 51.317 15.3368 51.3203 15.3277C51.3237 15.3186 51.3288 15.3103 51.3353 15.3034C51.3418 15.2964 51.3496 15.291 51.3581 15.2875C51.3667 15.2839 51.3758 15.2822 51.385 15.2826H56.5491C56.5676 15.2819 56.5853 15.2736 56.5982 15.2593C56.6111 15.2451 56.6183 15.226 56.6183 15.2062V13.4239C56.6183 13.4041 56.6111 13.3851 56.5982 13.3708C56.5853 13.3566 56.5676 13.3483 56.5491 13.3476H51.385C51.3667 13.3476 51.349 13.3398 51.3361 13.326C51.3231 13.3122 51.3158 13.2934 51.3158 13.2739V9.48542C51.3154 9.47553 51.317 9.46565 51.3203 9.45641C51.3237 9.44716 51.3287 9.43871 51.3352 9.43159C51.3416 9.42446 51.3494 9.41879 51.3579 9.41492C51.3665 9.41106 51.3757 9.40907 51.385 9.40907H57.2613C57.2799 9.40909 57.2978 9.40141 57.3112 9.38766C57.3246 9.3739 57.3324 9.35515 57.3331 9.33536V7.5504C57.3324 7.53061 57.3246 7.51186 57.3112 7.4981C57.2978 7.48435 57.2799 7.47667 57.2613 7.47668H49.3001C49.2818 7.47668 49.2642 7.48445 49.2512 7.49827C49.2382 7.5121 49.2309 7.53085 49.2309 7.5504V21.8169C49.2305 21.8268 49.2321 21.8367 49.2354 21.8459C49.2388 21.8552 49.2438 21.8636 49.2503 21.8708C49.2567 21.8779 49.2645 21.8835 49.273 21.8874C49.2816 21.8913 49.2908 21.8933 49.3001 21.8933H57.5136C57.5326 21.8933 57.5509 21.8852 57.5643 21.8709C57.5778 21.8566 57.5853 21.8372 57.5853 21.8169V19.9346C57.5853 19.9143 57.5778 19.8949 57.5643 19.8806C57.5509 19.8662 57.5326 19.8582 57.5136 19.8582H51.385C51.3758 19.8586 51.3667 19.8569 51.3581 19.8533C51.3496 19.8498 51.3418 19.8444 51.3353 19.8374C51.3288 19.8305 51.3237 19.8222 51.3203 19.8131C51.317 19.804 51.3154 19.7943 51.3158 19.7845Z" fill="#F7F7F7"/>
<path d="M144.175 21.7643L137.462 14.3796C137.456 14.3727 137.451 14.3645 137.447 14.3555C137.443 14.3465 137.442 14.3367 137.442 14.3269C137.442 14.3171 137.443 14.3074 137.447 14.2984C137.451 14.2893 137.456 14.2811 137.462 14.2743L143.499 7.61622C143.509 7.60591 143.516 7.59268 143.519 7.57824C143.522 7.5638 143.52 7.54881 143.515 7.53521C143.51 7.5216 143.5 7.51001 143.489 7.50193C143.477 7.49384 143.464 7.48963 143.45 7.48984H140.979C140.969 7.48984 140.96 7.49195 140.951 7.49602C140.942 7.5001 140.934 7.50605 140.927 7.51354L135.803 13.1764C135.793 13.1875 135.78 13.1951 135.766 13.1984C135.752 13.2016 135.738 13.2004 135.724 13.1947C135.711 13.189 135.7 13.1792 135.691 13.1666C135.683 13.154 135.679 13.1391 135.679 13.1238V7.5504C135.679 7.53085 135.672 7.5121 135.659 7.49827C135.646 7.48445 135.628 7.47668 135.61 7.47668H133.666C133.647 7.47667 133.629 7.48435 133.616 7.4981C133.603 7.51186 133.595 7.53061 133.594 7.5504V21.8169C133.594 21.8372 133.602 21.8566 133.615 21.8709C133.629 21.8852 133.647 21.8933 133.666 21.8933H135.61C135.619 21.8933 135.628 21.8913 135.637 21.8874C135.646 21.8835 135.653 21.8779 135.66 21.8708C135.666 21.8636 135.671 21.8552 135.675 21.8459C135.678 21.8367 135.679 21.8268 135.679 21.8169V15.538C135.68 15.5232 135.684 15.509 135.692 15.4969C135.7 15.4848 135.711 15.4754 135.724 15.4699C135.737 15.4643 135.751 15.4628 135.764 15.4655C135.778 15.4683 135.79 15.4752 135.8 15.4853L141.605 21.8696C141.618 21.8841 141.636 21.8926 141.654 21.8933H144.128C144.141 21.8923 144.154 21.8872 144.165 21.8786C144.176 21.87 144.185 21.8582 144.19 21.8447C144.195 21.8312 144.196 21.8164 144.193 21.8021C144.19 21.7879 144.184 21.7748 144.175 21.7643Z" fill="#F7F7F7"/>
<path d="M24.9401 0.942627L15.2252 8.69867L17.0295 4.12279L24.9401 0.942627Z" fill="#F7F7F7" stroke="#F7F7F7" stroke-width="0.712817" stroke-linecap="round" stroke-linejoin="round"/>
<path d="M2.04089 0.942627L12.1027 8.69867L10.3093 4.09298L2.04089 0.942627Z" fill="#F7F7F7" stroke="#F7F7F7" stroke-width="0.712817" stroke-linecap="round" stroke-linejoin="round"/>
<path d="M21.3431 19.04L18.6948 23.3097L24.3615 24.9494L25.981 19.1343L21.3431 19.04Z" fill="#F7F7F7" stroke="#F7F7F7" stroke-width="0.712817" stroke-linecap="round" stroke-linejoin="round"/>
<path d="M1 19.1343L2.61181 24.9494L8.28617 23.3097L5.64418 19.04L1 19.1343Z" fill="#F7F7F7" stroke="#F7F7F7" stroke-width="0.712817" stroke-linecap="round" stroke-linejoin="round"/>
<path d="M8.11192 11.8678L6.55139 14.3484L12.1028 14.608L11.915 8.32935L8.11192 11.8678Z" fill="#F7F7F7" stroke="#F7F7F7" stroke-width="0.712817" stroke-linecap="round" stroke-linejoin="round"/>
<path d="M19.2161 11.8991L15.3536 8.32935L15.2252 14.608L20.7766 14.3514L19.2161 11.8991Z" fill="#F7F7F7" stroke="#F7F7F7" stroke-width="0.712817" stroke-linecap="round" stroke-linejoin="round"/>
<path d="M8.28613 23.4721L11.7557 21.7656L8.76696 19.4094L8.28613 23.4721Z" fill="#F7F7F7" stroke="#F7F7F7" stroke-width="0.712817" stroke-linecap="round" stroke-linejoin="round"/>
<path d="M15.5724 21.7656L18.695 23.4721L18.2623 19.4094L15.5724 21.7656Z" fill="#F7F7F7" stroke="#F7F7F7" stroke-width="0.712817" stroke-linecap="round" stroke-linejoin="round"/>
<path d="M18.695 23.3729L15.5724 21.6254L15.821 23.9651L15.7937 24.9494L18.695 23.3729Z" fill="#FEF9F9" stroke="#FEF9F9" stroke-width="0.712817" stroke-linecap="round" stroke-linejoin="round"/>
<path d="M8.28613 23.3729L11.5098 24.9494L11.4896 23.9651L11.7557 21.6254L8.28613 23.3729Z" fill="#FEF9F9" stroke="#FEF9F9" stroke-width="0.712817" stroke-linecap="round" stroke-linejoin="round"/>
<path d="M11.4089 17.5627L8.63318 16.6823L10.5916 15.7161L11.4089 17.5627Z" fill="#233447" stroke="#233447" stroke-width="0.712817" stroke-linecap="round" stroke-linejoin="round"/>
<path d="M15.5724 17.5627L16.3868 15.7161L18.3481 16.6823L15.5724 17.5627Z" fill="#233447" stroke="#233447" stroke-width="0.712817" stroke-linecap="round" stroke-linejoin="round"/>
<path d="M8.49169 23.4721L8.98019 19.04L5.85754 19.1379L8.49169 23.4721Z" fill="#F7F7F7" stroke="#F7F7F7" stroke-width="0.712817" stroke-linecap="round" stroke-linejoin="round"/>
<path d="M18.3481 19.04L18.8351 23.4721L21.4708 19.1379L18.3481 19.04Z" fill="#F7F7F7" stroke="#F7F7F7" stroke-width="0.712817" stroke-linecap="round" stroke-linejoin="round"/>
<path d="M20.7766 14.2388L15.2252 14.5037L15.7389 17.5628L16.5591 15.7209L18.5341 16.6846L20.7766 14.2388Z" fill="#F7F7F7" stroke="#F7F7F7" stroke-width="0.712817" stroke-linecap="round" stroke-linejoin="round"/>
<path d="M8.80366 16.6846L10.7689 15.7209L11.5891 17.5628L12.1028 14.5037L6.55139 14.2388L8.80366 16.6846Z" fill="#F7F7F7" stroke="#F7F7F7" stroke-width="0.712817" stroke-linecap="round" stroke-linejoin="round"/>
<path d="M6.55139 14.2388L8.98011 19.4095L8.89801 16.8352L6.55139 14.2388Z" fill="#F7F7F7" stroke="#F7F7F7" stroke-width="0.712817" stroke-linecap="round" stroke-linejoin="round"/>
<path d="M18.4404 16.8352L18.3481 19.4095L20.7769 14.2388L18.4404 16.8352Z" fill="#F7F7F7" stroke="#F7F7F7" stroke-width="0.712817" stroke-linecap="round" stroke-linejoin="round"/>
<path d="M12.0858 14.608L11.4089 17.6571L12.2678 21.2561L12.4498 16.5177L12.0858 14.608Z" fill="#F7F7F7" stroke="#F7F7F7" stroke-width="0.712817" stroke-linecap="round" stroke-linejoin="round"/>
<path d="M15.1152 14.608L14.8782 16.5073L14.9924 21.2561L15.5721 17.6571L15.1152 14.608Z" fill="#F7F7F7" stroke="#F7F7F7" stroke-width="0.712817" stroke-linecap="round" stroke-linejoin="round"/>
<path d="M15.5343 17.6956L14.8782 21.2787L15.3551 21.6255L18.2587 19.2305L18.3478 16.8241L15.5343 17.6956Z" fill="#F7F7F7" stroke="#F7F7F7" stroke-width="0.712817" stroke-linecap="round" stroke-linejoin="round"/>
<path d="M8.63318 16.8241L8.71273 19.2305L11.6245 21.6255L12.1028 21.2787L11.4448 17.6956L8.63318 16.8241Z" fill="#F7F7F7" stroke="#F7F7F7" stroke-width="0.712817" stroke-linecap="round" stroke-linejoin="round"/>
<path d="M15.5752 25.044L15.6045 24.0626L15.3577 23.8308H11.6234L11.3863 24.0626L11.4059 25.044L8.28613 23.4722L9.37579 24.4213L11.5941 26.0575H15.387L17.6053 24.4213L18.6949 23.4722L15.5752 25.044Z" fill="#FEF9F9" stroke="#FEF9F9" stroke-width="0.712817" stroke-linecap="round" stroke-linejoin="round"/>
<path d="M15.3086 21.6399L14.8397 21.2561H12.1321L11.6631 21.6399L11.4089 24.2108L11.6429 23.9553H15.3289L15.5725 24.2108L15.3086 21.6399Z" fill="#161616" stroke="#161616" stroke-width="0.712817" stroke-linecap="round" stroke-linejoin="round"/>
<path d="M25.4976 9.31773L26.3282 4.97609L25.0828 0.942627L15.5724 8.54101L19.2307 11.8711L24.4002 13.5L25.5375 12.063L25.0428 11.6804L25.8335 10.9026L25.2308 10.3921L26.0214 9.74329L25.4976 9.31773Z" fill="#434343" stroke="#434343" stroke-width="0.712817" stroke-linecap="round" stroke-linejoin="round"/>
<path d="M1 4.97609L1.84033 9.31773L1.30672 9.74329L2.09739 10.3921L1.49465 10.9026L2.28532 11.6804L1.79067 12.063L2.92798 13.5L8.09749 11.8711L11.7558 8.54101L2.2454 0.942627L1 4.97609Z" fill="#434343" stroke="#434343" stroke-width="0.712817" stroke-linecap="round" stroke-linejoin="round"/>
<path d="M24.2595 13.6401L19.1155 12.0227L20.6697 14.5488L18.3481 19.4094L21.4167 19.3667H25.9813L24.2595 13.6401Z" fill="#F7F7F7" stroke="#F7F7F7" stroke-width="0.712817" stroke-linecap="round" stroke-linejoin="round"/>
<path d="M8.17681 12.0227L2.79217 13.6401L1 19.3667H5.77811L8.98009 19.4094L6.54995 14.5488L8.17681 12.0227Z" fill="#F7F7F7" stroke="#F7F7F7" stroke-width="0.712817" stroke-linecap="round" stroke-linejoin="round"/>
<path d="M15.1531 14.6418L15.485 8.58286L16.9599 4.26672H10.3677L11.8426 8.58286L12.1745 14.6418L12.3015 16.5522L12.3111 21.2562H15.0165L15.0261 16.5522L15.1531 14.6418Z" fill="#F7F7F7" stroke="#F7F7F7" stroke-width="0.712817" stroke-linecap="round" stroke-linejoin="round"/>
</svg>
