<svg width="156" height="29" viewBox="0 0 156 29" fill="none" xmlns="http://www.w3.org/2000/svg">
<path d="M41.456 22.168C39.872 22.168 38.416 21.8 37.088 21.064C35.776 20.328 34.728 19.304 33.944 17.992C33.176 16.664 32.792 15.176 32.792 13.528C32.792 11.88 33.176 10.4 33.944 9.088C34.728 7.776 35.776 6.752 37.088 6.016C38.416 5.28 39.872 4.912 41.456 4.912C43.04 4.912 44.488 5.28 45.8 6.016C47.128 6.752 48.168 7.776 48.92 9.088C49.688 10.4 50.072 11.88 50.072 13.528C50.072 15.176 49.688 16.664 48.92 17.992C48.152 19.304 47.112 20.328 45.8 21.064C44.488 21.8 43.04 22.168 41.456 22.168ZM41.456 18.424C42.8 18.424 43.872 17.976 44.672 17.08C45.488 16.184 45.896 15 45.896 13.528C45.896 12.04 45.488 10.856 44.672 9.976C43.872 9.08 42.8 8.632 41.456 8.632C40.096 8.632 39.008 9.072 38.192 9.952C37.392 10.832 36.992 12.024 36.992 13.528C36.992 15.016 37.392 16.208 38.192 17.104C39.008 17.984 40.096 18.424 41.456 18.424ZM55.7392 10.504C56.1392 9.88 56.6912 9.376 57.3952 8.992C58.0992 8.608 58.9232 8.416 59.8672 8.416C60.9712 8.416 61.9712 8.696 62.8672 9.256C63.7632 9.816 64.4672 10.616 64.9792 11.656C65.5072 12.696 65.7712 13.904 65.7712 15.28C65.7712 16.656 65.5072 17.872 64.9792 18.928C64.4672 19.968 63.7632 20.776 62.8672 21.352C61.9712 21.912 60.9712 22.192 59.8672 22.192C58.9392 22.192 58.1152 22 57.3952 21.616C56.6912 21.232 56.1392 20.736 55.7392 20.128V28.384H51.6352V8.608H55.7392V10.504ZM61.5952 15.28C61.5952 14.256 61.3072 13.456 60.7312 12.88C60.1712 12.288 59.4752 11.992 58.6432 11.992C57.8272 11.992 57.1312 12.288 56.5552 12.88C55.9952 13.472 55.7152 14.28 55.7152 15.304C55.7152 16.328 55.9952 17.136 56.5552 17.728C57.1312 18.32 57.8272 18.616 58.6432 18.616C59.4592 18.616 60.1552 18.32 60.7312 17.728C61.3072 17.12 61.5952 16.304 61.5952 15.28ZM79.8283 15.088C79.8283 15.472 79.8043 15.872 79.7563 16.288H70.4683C70.5323 17.12 70.7963 17.76 71.2603 18.208C71.7403 18.64 72.3243 18.856 73.0123 18.856C74.0363 18.856 74.7483 18.424 75.1483 17.56H79.5163C79.2923 18.44 78.8843 19.232 78.2923 19.936C77.7163 20.64 76.9883 21.192 76.1083 21.592C75.2283 21.992 74.2443 22.192 73.1563 22.192C71.8443 22.192 70.6763 21.912 69.6523 21.352C68.6283 20.792 67.8283 19.992 67.2523 18.952C66.6763 17.912 66.3883 16.696 66.3883 15.304C66.3883 13.912 66.6683 12.696 67.2283 11.656C67.8043 10.616 68.6043 9.816 69.6283 9.256C70.6523 8.696 71.8283 8.416 73.1563 8.416C74.4523 8.416 75.6043 8.688 76.6123 9.232C77.6203 9.776 78.4043 10.552 78.9643 11.56C79.5403 12.568 79.8283 13.744 79.8283 15.088ZM75.6283 14.008C75.6283 13.304 75.3883 12.744 74.9083 12.328C74.4283 11.912 73.8283 11.704 73.1083 11.704C72.4203 11.704 71.8363 11.904 71.3563 12.304C70.8923 12.704 70.6043 13.272 70.4923 14.008H75.6283ZM89.4333 8.464C91.0013 8.464 92.2493 8.976 93.1773 10C94.1213 11.008 94.5933 12.4 94.5933 14.176V22H90.5133V14.728C90.5133 13.832 90.2813 13.136 89.8173 12.64C89.3533 12.144 88.7293 11.896 87.9453 11.896C87.1613 11.896 86.5373 12.144 86.0733 12.64C85.6093 13.136 85.3773 13.832 85.3773 14.728V22H81.2733V8.608H85.3773V10.384C85.7933 9.792 86.3533 9.328 87.0573 8.992C87.7613 8.64 88.5533 8.464 89.4333 8.464ZM102.821 22.168C101.589 22.168 100.485 21.968 99.5092 21.568C98.5332 21.168 97.7492 20.576 97.1572 19.792C96.5812 19.008 96.2772 18.064 96.2452 16.96H100.613C100.677 17.584 100.893 18.064 101.261 18.4C101.629 18.72 102.109 18.88 102.701 18.88C103.309 18.88 103.789 18.744 104.141 18.472C104.493 18.184 104.669 17.792 104.669 17.296C104.669 16.88 104.525 16.536 104.237 16.264C103.965 15.992 103.621 15.768 103.205 15.592C102.805 15.416 102.229 15.216 101.477 14.992C100.389 14.656 99.5012 14.32 98.8132 13.984C98.1252 13.648 97.5332 13.152 97.0372 12.496C96.5412 11.84 96.2932 10.984 96.2932 9.928C96.2932 8.36 96.8612 7.136 97.9972 6.256C99.1332 5.36 100.613 4.912 102.437 4.912C104.293 4.912 105.789 5.36 106.925 6.256C108.061 7.136 108.669 8.368 108.749 9.952H104.309C104.277 9.408 104.077 8.984 103.709 8.68C103.341 8.36 102.869 8.2 102.293 8.2C101.797 8.2 101.397 8.336 101.093 8.608C100.789 8.864 100.637 9.24 100.637 9.736C100.637 10.28 100.893 10.704 101.405 11.008C101.917 11.312 102.717 11.64 103.805 11.992C104.893 12.36 105.773 12.712 106.445 13.048C107.133 13.384 107.725 13.872 108.221 14.512C108.717 15.152 108.965 15.976 108.965 16.984C108.965 17.944 108.717 18.816 108.221 19.6C107.741 20.384 107.037 21.008 106.109 21.472C105.181 21.936 104.085 22.168 102.821 22.168ZM123.395 15.088C123.395 15.472 123.371 15.872 123.323 16.288H114.035C114.099 17.12 114.363 17.76 114.827 18.208C115.307 18.64 115.891 18.856 116.579 18.856C117.603 18.856 118.315 18.424 118.715 17.56H123.083C122.859 18.44 122.451 19.232 121.859 19.936C121.283 20.64 120.555 21.192 119.675 21.592C118.795 21.992 117.811 22.192 116.723 22.192C115.411 22.192 114.243 21.912 113.219 21.352C112.195 20.792 111.395 19.992 110.819 18.952C110.243 17.912 109.955 16.696 109.955 15.304C109.955 13.912 110.235 12.696 110.795 11.656C111.371 10.616 112.171 9.816 113.195 9.256C114.219 8.696 115.395 8.416 116.723 8.416C118.019 8.416 119.171 8.688 120.179 9.232C121.187 9.776 121.971 10.552 122.531 11.56C123.107 12.568 123.395 13.744 123.395 15.088ZM119.195 14.008C119.195 13.304 118.955 12.744 118.475 12.328C117.995 11.912 117.395 11.704 116.675 11.704C115.987 11.704 115.403 11.904 114.923 12.304C114.459 12.704 114.171 13.272 114.059 14.008H119.195ZM124.024 15.28C124.024 13.904 124.28 12.696 124.792 11.656C125.32 10.616 126.032 9.816 126.928 9.256C127.824 8.696 128.824 8.416 129.928 8.416C130.872 8.416 131.696 8.608 132.4 8.992C133.12 9.376 133.672 9.88 134.056 10.504V8.608H138.16V22H134.056V20.104C133.656 20.728 133.096 21.232 132.376 21.616C131.672 22 130.848 22.192 129.904 22.192C128.816 22.192 127.824 21.912 126.928 21.352C126.032 20.776 125.32 19.968 124.792 18.928C124.28 17.872 124.024 16.656 124.024 15.28ZM134.056 15.304C134.056 14.28 133.768 13.472 133.192 12.88C132.632 12.288 131.944 11.992 131.128 11.992C130.312 11.992 129.616 12.288 129.04 12.88C128.48 13.456 128.2 14.256 128.2 15.28C128.2 16.304 128.48 17.12 129.04 17.728C129.616 18.32 130.312 18.616 131.128 18.616C131.944 18.616 132.632 18.32 133.192 17.728C133.768 17.136 134.056 16.328 134.056 15.304Z" fill="white"/>
<g clip-path="url(#clip0_138_576)">
<path fill-rule="evenodd" clip-rule="evenodd" d="M23.8141 13.5C23.8141 20.4426 18.5263 26.0714 12.0043 26.0714C5.48226 26.0714 0.194458 20.4426 0.194458 13.5C0.194458 6.5574 5.48226 0.928589 12.0043 0.928589C18.5277 0.928589 23.8141 6.5574 23.8141 13.5ZM6.02094 13.9224L6.07189 13.8372L9.14409 8.72115C9.189 8.64625 9.29455 8.654 9.32852 8.73536C9.84177 9.95979 10.2846 11.4826 10.0772 12.4306C9.98859 12.8207 9.74592 13.3489 9.4729 13.8372C9.43773 13.9082 9.3989 13.978 9.35764 14.0451C9.33822 14.0761 9.30546 14.0942 9.27027 14.0942H6.11072C6.02578 14.0942 5.97604 13.996 6.02094 13.9224ZM19.7148 15.6829V14.8731C19.7148 14.7981 19.6469 14.7439 19.5801 14.7646L15.9874 15.8702C15.968 15.8753 15.951 15.8869 15.9376 15.9025C15.5529 16.3549 15.2258 16.6585 15.1392 16.739L15.1332 16.7446C14.9099 16.9461 14.6333 17.0559 14.3421 17.0559H13.0414V15.6441H14.0751C14.1018 15.6441 14.1273 15.6338 14.1467 15.6157L14.2802 15.4853C14.3372 15.4297 14.4052 15.3626 14.4865 15.276C14.4934 15.2687 14.5004 15.2612 14.5075 15.2537C14.5502 15.2084 14.5958 15.16 14.6405 15.1068C14.694 15.0513 14.7461 14.9893 14.7946 14.9286C14.8759 14.8356 14.9536 14.7387 15.0349 14.6367C15.0931 14.5695 15.1465 14.4933 15.1987 14.4171C15.257 14.3448 15.314 14.2634 15.3673 14.1859C15.3872 14.1548 15.4084 14.1234 15.43 14.0913C15.4506 14.0607 15.4716 14.0295 15.4923 13.9974C15.5312 13.9354 15.57 13.8695 15.6027 13.8075C15.7047 13.6396 15.7908 13.46 15.8636 13.2805C15.897 13.2036 15.9237 13.1227 15.9497 13.044C15.953 13.0341 15.9562 13.0242 15.9595 13.0144C15.9886 12.9227 16.0129 12.8362 16.0311 12.7445C16.0747 12.5288 16.0844 12.3144 16.065 12.1C16.0602 12.0328 16.0553 11.9669 16.0408 11.905V11.8946C16.0359 11.8507 16.0262 11.8016 16.0128 11.7564C15.9692 11.5472 15.9012 11.3379 15.8151 11.1326C15.786 11.0564 15.752 10.9789 15.7192 10.9079C15.6416 10.7542 15.5603 10.6004 15.4681 10.4519C15.4496 10.4205 15.4291 10.3888 15.4087 10.357C15.393 10.3326 15.3773 10.3082 15.3625 10.284C15.3041 10.1881 15.2385 10.0957 15.1747 10.006C15.1603 9.98573 15.146 9.96561 15.132 9.94561C15.0943 9.89304 15.0532 9.84048 15.0117 9.78757C14.989 9.75857 14.9662 9.72946 14.9439 9.70019C14.8808 9.61883 14.8189 9.54134 14.7558 9.46513C14.5302 9.19389 14.2936 8.9485 14.0824 8.73926C14.0436 8.69792 14.0011 8.65659 13.9574 8.61656C13.7936 8.45768 13.6444 8.31947 13.5194 8.21229C13.4819 8.18154 13.4482 8.15124 13.4168 8.12304C13.3955 8.10386 13.3753 8.08565 13.3556 8.06892C13.3177 8.03886 13.2849 8.01221 13.2573 7.98983C13.2398 7.97565 13.2244 7.96319 13.2112 7.95266C13.2015 7.94492 13.1906 7.93976 13.1797 7.93587L13.0414 7.89456V6.67528C13.0414 6.47637 12.9661 6.29814 12.846 6.16767C12.7259 6.03723 12.5585 5.95715 12.374 5.95715C12.0052 5.95715 11.7067 6.27875 11.7067 6.67528V7.49672L11.6375 7.47608L11.4494 7.41923L11.2784 7.36887C11.2779 7.36887 11.2774 7.36865 11.2768 7.36838C11.2759 7.36801 11.2749 7.36756 11.2735 7.36756H11.2699L9.97158 6.99301C9.91456 6.97621 9.86603 7.04209 9.89515 7.09763L10.1026 7.50577C10.1144 7.53714 10.1293 7.56851 10.1447 7.60074C10.1546 7.6216 10.1647 7.64283 10.1742 7.66465C10.2082 7.73696 10.2422 7.81317 10.2749 7.88938C10.3041 7.95653 10.3332 8.02241 10.3671 8.09475C10.3814 8.12876 10.396 8.1632 10.4108 8.19812C10.465 8.32629 10.522 8.46107 10.5783 8.60623L10.5783 8.60624C10.6268 8.72894 10.6753 8.85163 10.7178 8.9795C10.8343 9.3011 10.9447 9.64465 11.0406 9.99728C11.0644 10.0762 11.0835 10.1526 11.1028 10.23C11.111 10.2628 11.1192 10.2958 11.1279 10.3292L11.1413 10.3912C11.1801 10.5553 11.2141 10.718 11.2383 10.882C11.2577 10.9944 11.2759 11.1016 11.2856 11.2101C11.3002 11.3328 11.3148 11.4555 11.3196 11.5782C11.3293 11.6905 11.3342 11.8081 11.3342 11.9205C11.3342 12.2072 11.3099 12.4836 11.2529 12.7445C11.2493 12.7585 11.2457 12.7727 11.2421 12.787C11.2262 12.8505 11.2096 12.9163 11.1898 12.9796C11.1719 13.0473 11.1486 13.115 11.1245 13.1854C11.116 13.2103 11.1073 13.2355 11.0988 13.2611C11.0972 13.2657 11.0956 13.2703 11.094 13.2749C11.0761 13.326 11.058 13.3781 11.0357 13.4291C10.9156 13.7365 10.7663 14.0426 10.6122 14.3293C10.3866 14.7542 10.1597 15.1275 10.0007 15.3677C9.99099 15.3833 9.98151 15.398 9.97237 15.4122C9.96099 15.4299 9.95014 15.4468 9.94005 15.4633C9.89031 15.5382 9.94125 15.6441 10.0274 15.6441H11.7067V17.0559H10.008C9.55177 17.0559 9.12952 16.7807 8.92568 16.3403C8.82012 16.1194 8.77886 15.8766 8.80314 15.639C8.80919 15.5679 8.75944 15.5008 8.69151 15.5008H5.26015C5.2019 15.5008 5.15459 15.5511 5.15459 15.6131V15.688C5.15459 18.0181 6.92245 19.9064 9.10403 19.9064H15.2594C16.4132 19.9064 17.0683 18.7872 17.7123 17.6871C17.8918 17.3804 18.0704 17.0753 18.2588 16.7962C18.5973 16.2951 19.4115 15.8973 19.6493 15.7888C19.6881 15.7707 19.7148 15.7294 19.7148 15.6829Z" fill="white"/>
</g>
<defs>
<clipPath id="clip0_138_576">
<rect width="23.6197" height="25.1429" fill="white" transform="translate(0.194458 0.928589)"/>
</clipPath>
</defs>
</svg>
