<svg width="74" height="71" viewBox="0 0 74 71" fill="none" xmlns="http://www.w3.org/2000/svg">
<path d="M37.4673 42.5547C34.5855 42.5547 31.5361 43.5919 29.4586 45.9997L33.1111 49.3707C34.5855 47.8148 35.8589 47.4074 37.0987 47.4074C38.9417 47.4074 39.947 48.3334 39.947 49.63V49.9263H35.3897C33.9153 49.9263 32.6084 50.2227 31.5697 50.8524C30.1623 51.7044 29.291 53.2232 29.291 55.3347C29.291 59.0761 31.9718 61.6321 35.6913 61.6321C36.8977 61.6321 38.6737 61.3727 40.014 59.4094L40.3491 61.2246H44.9734V49.63C44.9734 45.2959 42.1586 42.5547 37.4673 42.5547ZM36.4955 57.1498C35.0546 57.1498 34.3509 56.3719 34.3509 55.4458C34.3509 55.0013 34.5185 54.6308 34.8536 54.3715C35.1552 54.1493 35.5908 54.0381 36.1269 54.0381H39.947C39.8465 55.8533 38.3051 57.1498 36.4955 57.1498ZM49.2775 61.2246H54.3375V47.2962H57.6214V42.9621H54.3375V41.3693C54.3375 40.4061 54.5385 39.6282 55.3762 39.6282C55.8119 39.6282 56.247 39.8505 56.6496 40.0728L58.2581 35.8128C57.2528 35.3312 56.281 34.9978 54.8066 34.9978C51.8913 34.9978 49.311 36.2573 49.311 41.3322V42.9621H46.3285V47.2962H49.2775V61.2246ZM73.4848 52.2601C73.4848 46.6294 70.7706 42.5547 65.6101 42.5547C59.7125 42.5547 57.4673 47.6296 57.4673 52.186C57.4673 56.8905 59.7795 61.6321 65.8782 61.6321C68.7935 61.6321 71.1392 60.4096 72.8817 58.2241L69.3967 54.8161C68.4584 56.0755 67.1516 56.5941 65.9117 56.5941C63.7336 56.5941 62.7283 55.4828 62.5272 54.0381H73.3843C73.4513 53.2602 73.4848 52.7787 73.4848 52.2601ZM62.4602 49.9263C62.6613 48.7409 63.432 47.1851 65.5431 47.1851C67.2186 47.1851 68.5925 48.2223 68.6595 49.9263H62.4602ZM68.5925 50.6301L68.626 50.5931L68.5925 50.6301Z" fill="#F7F7F7"/>
<path d="M10.6845 24.9206H17.5238C18.6473 24.9206 19.5963 24.5046 20.3708 23.6726C21.1561 22.8285 21.5489 21.6407 21.5489 20.1093C21.5489 18.9638 21.1398 17.9388 20.3217 17.0344C19.5036 16.118 18.5709 15.6598 17.5238 15.6598H7.41207V39.1013H6.23398V14.3574H17.5238C18.8982 14.3574 20.109 14.9423 21.1561 16.112C22.2033 17.2816 22.7269 18.6141 22.7269 20.1093C22.7269 21.9543 22.2197 23.4375 21.2052 24.5589C20.1908 25.6682 18.9637 26.223 17.5238 26.223H10.6845V24.9206ZM10.6845 27.5253H17.5238C18.6582 27.5253 19.7054 27.2238 20.6653 26.6209C21.6361 26.0059 22.4161 25.1256 23.0051 23.9801C23.605 22.8345 23.905 21.5443 23.905 20.1093C23.905 18.2523 23.2614 16.6124 21.9742 15.1895C20.698 13.7666 19.2146 13.0551 17.5238 13.0551H5.05594V39.1013H3.87786V11.7529H17.5238C18.8437 11.7529 20.0872 12.1387 21.2543 12.9105C22.4215 13.6822 23.3487 14.7132 24.0359 16.0034C24.734 17.2937 25.083 18.6623 25.083 20.1093C25.083 21.7493 24.734 23.2445 24.0359 24.5951C23.3378 25.9335 22.4106 26.9766 21.2543 27.7242C20.109 28.4598 18.8655 28.8275 17.5238 28.8275H10.6845V27.5253ZM10.6845 30.1299H17.5238C18.691 30.1299 19.809 29.8766 20.878 29.3702C21.947 28.8517 22.8742 28.1583 23.6595 27.2901C24.4558 26.4098 25.0885 25.3487 25.5576 24.1067C26.0266 22.8526 26.2611 21.5201 26.2611 20.1093C26.2611 18.4212 25.863 16.8355 25.0667 15.3523C24.2704 13.857 23.1959 12.6693 21.8434 11.789C20.5017 10.8967 19.0618 10.4505 17.5238 10.4505H2.69979V39.1013H1.52173V9.14819H17.5238C19.2691 9.14819 20.9053 9.65466 22.4324 10.6676C23.9595 11.6684 25.1758 13.013 26.0812 14.7011C26.9865 16.3893 27.4392 18.192 27.4392 20.1093C27.4392 21.8216 27.1719 23.4013 26.6375 24.8483C26.1029 26.2832 25.383 27.477 24.4777 28.4296C23.5723 29.3823 22.5197 30.1239 21.3198 30.6544C20.1199 31.1729 18.8546 31.4322 17.5238 31.4322H10.6845V30.1299ZM9.7682 39.1013H8.59011V16.9621H17.5238C18.2983 16.9621 18.9637 17.2756 19.52 17.9026C20.0872 18.5297 20.3708 19.2652 20.3708 20.1093C20.3708 22.4487 19.4218 23.6183 17.5238 23.6183H10.6845V22.316H17.5238C18.0474 22.316 18.4564 22.1532 18.751 21.8277C19.0455 21.5021 19.1927 20.9293 19.1927 20.1093C19.1927 19.5788 19.0291 19.1386 18.7019 18.7889C18.3855 18.4392 17.9929 18.2644 17.5238 18.2644H9.7682V39.1013Z" fill="url(#paint0_linear_96_207)"/>
<path d="M20.3798 42.9923H18.4C17.5601 42.9923 16.9547 42.7572 16.5838 42.2869C16.2129 41.8046 16.0275 41.1715 16.0275 40.3877C16.0275 38.6513 17.2001 37.7831 19.5453 37.7831C21.7488 37.7831 23.4068 38.1448 24.5194 38.8684L23.5704 39.6642C22.8068 39.2784 21.4651 39.0854 19.5453 39.0854C18.6073 39.0854 17.9746 39.2 17.6473 39.4291C17.331 39.6582 17.1728 39.9777 17.1728 40.3877C17.1728 40.7977 17.2601 41.1173 17.4346 41.3464C17.6091 41.5755 17.9309 41.69 18.4 41.69H20.4289C21.9015 41.69 23.2268 41.9674 24.4049 42.522C25.5938 43.0768 26.5701 43.8364 27.3337 44.8011C28.0972 45.7537 28.6808 46.857 29.0844 48.1111C29.488 49.3532 29.6898 50.6856 29.6898 52.1084C29.6898 53.266 29.5426 54.3634 29.248 55.4006C28.9535 56.4373 28.5063 57.3902 27.9063 58.2581C27.3173 59.1266 26.6028 59.8803 25.7629 60.5193C24.9339 61.1465 23.9413 61.6347 22.785 61.9846C21.6397 62.3463 20.3961 62.5268 19.0545 62.5268C16.9492 62.5268 14.9749 62.1713 13.1314 61.4598C11.2988 60.7606 9.77175 59.7779 8.55005 58.5117L9.49906 57.7338C10.6117 58.8431 12.0025 59.7054 13.6714 60.3202C15.3512 60.9232 17.1455 61.2247 19.0545 61.2247C20.5488 61.2247 21.896 60.9895 23.0959 60.5193C24.3067 60.0367 25.2993 59.3797 26.0738 58.5478C26.8591 57.7158 27.4591 56.7511 27.8736 55.6537C28.299 54.5563 28.5117 53.3745 28.5117 52.1084C28.5117 50.4324 28.2063 48.919 27.5955 47.5685C26.9846 46.2059 26.052 45.1026 24.7975 44.2584C23.554 43.4144 22.0814 42.9923 20.3798 42.9923ZM18.4 44.2947H20.2653C22.4796 44.2947 24.2085 45.0423 25.452 46.5375C26.7064 48.0328 27.3337 49.8898 27.3337 52.1084C27.3337 54.3634 26.6083 56.2325 25.1575 57.7158C23.7067 59.1868 21.6724 59.9225 19.0545 59.9225C17.3092 59.9225 15.6784 59.657 14.1622 59.1266C12.646 58.5961 11.3861 57.8486 10.3826 56.8834L11.2988 56.0694C12.1933 56.8777 13.3169 57.5049 14.6694 57.9509C16.0329 58.397 17.4946 58.6203 19.0545 58.6203C21.3561 58.6203 23.1123 58.0111 24.323 56.7933C25.5447 55.5755 26.1556 54.0135 26.1556 52.1084C26.1556 50.2274 25.6429 48.6719 24.6175 47.4419C23.6031 46.2119 22.1469 45.597 20.2489 45.597H18.4C16.8074 45.597 15.613 45.1146 14.8167 44.1499C14.0204 43.1853 13.6223 41.9312 13.6223 40.3877C13.6223 38.8442 14.1131 37.5902 15.0949 36.6255C16.0875 35.6608 17.571 35.1785 19.5453 35.1785C20.9307 35.1785 22.2178 35.3594 23.4068 35.7211C24.5958 36.0708 25.5775 36.5773 26.3519 37.2405L25.4193 38.0363C24.0558 36.9993 22.0978 36.4808 19.5453 36.4808C17.8982 36.4808 16.6929 36.8426 15.9293 37.566C15.1767 38.2775 14.8004 39.2181 14.8004 40.3877C14.8004 41.5695 15.0785 42.516 15.6348 43.2275C16.202 43.9389 17.1238 44.2947 18.4 44.2947ZM18.4 46.8992H20.1998C21.7924 46.8992 22.9868 47.3876 23.7831 48.3644C24.5794 49.3411 24.9775 50.5891 24.9775 52.1084C24.9775 53.6518 24.4812 54.9062 23.4886 55.8709C22.5069 56.8355 21.0288 57.3176 19.0545 57.3176C17.6691 57.3176 16.3766 57.1427 15.1767 56.7933C13.9877 56.4317 13.006 55.9192 12.2315 55.2555L13.1642 54.4601C14.5276 55.4968 16.4911 56.0154 19.0545 56.0154C20.7016 56.0154 21.9015 55.6599 22.6541 54.9484C23.4177 54.225 23.7995 53.2783 23.7995 52.1084C23.7995 50.9388 23.5158 49.9983 22.9486 49.2868C22.3814 48.5633 21.4597 48.2016 20.1835 48.2016H18.4C16.1639 48.2016 14.4131 47.466 13.1478 45.9949C11.8934 44.5117 11.2661 42.6426 11.2661 40.3877C11.2661 38.1328 11.9915 36.2698 13.4423 34.7986C14.8931 33.3154 16.9274 32.5739 19.5453 32.5739C21.2906 32.5739 22.9159 32.8391 24.4212 33.3697C25.9374 33.9003 27.1973 34.6479 28.2009 35.6126L27.2846 36.4265C26.3901 35.6186 25.2666 34.9916 23.914 34.5454C22.5614 34.0992 21.1052 33.8762 19.5453 33.8762C17.2437 33.8762 15.4821 34.4851 14.2604 35.703C13.0496 36.9209 12.4442 38.4825 12.4442 40.3877C12.4442 42.2809 12.9569 43.8424 13.9823 45.0724C15.0076 46.2903 16.4802 46.8992 18.4 46.8992ZM18.4 49.5039H20.1998C21.0397 49.5039 21.6451 49.745 22.016 50.2274C22.3869 50.7097 22.5723 51.3367 22.5723 52.1084C22.5723 53.8448 21.3997 54.7132 19.0545 54.7132C16.8401 54.7132 15.1767 54.3516 14.0641 53.6277L15.013 52.8323C15.7766 53.2181 17.1238 53.4105 19.0545 53.4105C19.9925 53.4105 20.6198 53.2963 20.9361 53.0674C21.2633 52.8379 21.427 52.5184 21.427 52.1084C21.427 51.7107 21.3342 51.397 21.1488 51.1679C20.9743 50.9268 20.647 50.8062 20.1671 50.8062H18.4C16.8947 50.8062 15.5312 50.5349 14.3095 49.9923C13.0987 49.4496 12.1006 48.702 11.3152 47.7494C10.5407 46.7967 9.94628 45.6934 9.53178 44.4393C9.11724 43.1853 8.91 41.8347 8.91 40.3877C8.91 39.2301 9.05725 38.1328 9.35181 37.0958C9.64632 36.0587 10.0881 35.1061 10.6771 34.2379C11.2771 33.3697 11.9915 32.6221 12.8205 31.9951C13.6605 31.356 14.6531 30.8616 15.7984 30.5119C16.9547 30.1501 18.2037 29.9692 19.5453 29.9692C21.6506 29.9692 23.6195 30.325 25.452 31.0364C27.2846 31.7358 28.8117 32.7186 30.0334 33.9847L29.0844 34.7625C27.9718 33.6531 26.581 32.7969 24.9121 32.194C23.2431 31.579 21.4543 31.2715 19.5453 31.2715C18.051 31.2715 16.6983 31.5127 15.4875 31.9951C14.2877 32.4654 13.295 33.1165 12.5097 33.9485C11.7352 34.7806 11.1353 35.7452 10.7098 36.8425C10.2953 37.9399 10.0881 39.1216 10.0881 40.3877C10.0881 42.088 10.399 43.6193 11.0207 44.982C11.6425 46.3446 12.5915 47.4419 13.8677 48.2739C15.144 49.0939 16.6547 49.5039 18.4 49.5039Z" fill="url(#paint1_linear_96_207)"/>
<path d="M32.9919 37.9655C33.7291 37.9655 34.7344 37.8174 35.7732 37.3729V33.0017C35.3711 33.1129 34.969 33.1499 34.7009 33.1499C34.0642 33.1499 33.7291 33.0388 33.7291 32.1868V11.7388H28.6692V32.9276C28.6692 36.4468 30.5792 37.9655 32.9919 37.9655ZM44.8011 18.8882C41.9193 18.8882 38.8699 19.9254 36.7923 22.3332L40.4449 25.7042C41.9193 24.1483 43.1926 23.7409 44.4325 23.7409C46.2755 23.7409 47.2809 24.6669 47.2809 25.9635V26.2598H42.7235C41.2491 26.2598 39.9422 26.5562 38.9034 27.1859C37.496 28.0379 36.6248 29.5567 36.6248 31.6682C36.6248 35.4095 39.3056 37.9655 43.0251 37.9655C44.2314 37.9655 46.0074 37.7062 47.3479 35.7429L47.683 37.5581H52.3073V25.9635C52.3073 21.6294 49.4925 18.8882 44.8011 18.8882ZM43.8293 33.4833C42.3884 33.4833 41.6847 32.7054 41.6847 31.7793C41.6847 31.3348 41.8523 30.9643 42.1874 30.705C42.4889 30.4828 42.9246 30.3716 43.4607 30.3716H47.2809C47.1804 32.1868 45.6388 33.4833 43.8293 33.4833ZM55.7834 45.1149H61.2455L70.8292 19.2956H65.3001L61.5471 30.5569L58.2631 19.2956H52.7006L58.8328 36.9283L55.7834 45.1149Z" fill="#F7F7F7"/>
<defs>
<linearGradient id="paint0_linear_96_207" x1="4.60013" y1="11.3187" x2="17.8034" y2="11.5428" gradientUnits="userSpaceOnUse">
<stop stop-color="#DC3E88"/>
<stop offset="0.418735" stop-color="#B840AE"/>
<stop offset="1" stop-color="#843FE8"/>
</linearGradient>
<linearGradient id="paint1_linear_96_207" x1="12.512" y1="33.4421" x2="25.7153" y2="33.6661" gradientUnits="userSpaceOnUse">
<stop stop-color="#DC3E88"/>
<stop offset="0.418735" stop-color="#B840AE"/>
<stop offset="1" stop-color="#843FE8"/>
</linearGradient>
</defs>
</svg>
